<svg>
<g>
	<path d="M114.512,51.743c-32.669,0-59.248,26.579-59.248,59.248c0,13.37,4.384,26.003,12.672,36.527
		c1.636,2.083,3.355,4.077,5.175,6.188l0.1,0.116c5.568,6.46,11.325,13.142,13.475,21.01c0.486,1.803,0.555,5.26,0.527,7.923v4.526
		c0,4.142,3.358,7.5,7.5,7.5h39.272c4.142,0,7.5-3.358,7.5-7.5v-4.579c-0.025-3.478,0.155-6.016,0.518-7.333
		c2.162-7.816,8.542-15.321,14.222-22.001l0.245-0.288c1.639-1.926,3.188-3.745,4.598-5.538c8.3-10.53,12.687-23.169,12.687-36.551
		C173.754,78.322,147.178,51.743,114.512,51.743z M149.281,138.264c-1.235,1.571-2.691,3.282-4.233,5.093l-0.302,0.355
		c-6.635,7.804-14.155,16.649-17.203,27.667c-0.431,1.564-0.91,3.904-1.032,8.402h-24.312c-0.104-4.777-0.591-7.227-1.036-8.877
		c-3.05-11.164-10.557-19.875-16.59-26.876l-0.101-0.118c-1.705-1.977-3.315-3.845-4.746-5.665
		c-6.19-7.86-9.462-17.285-9.462-27.254c0-24.398,19.85-44.248,44.248-44.248c24.395,0,44.242,19.85,44.242,44.248
		C158.754,120.971,155.48,130.399,149.281,138.264z"/>
	<path d="M133.984,196.91H94.713c-4.142,0-7.5,3.358-7.5,7.5s3.358,7.5,7.5,7.5h39.272c4.142,0,7.5-3.358,7.5-7.5
		S138.126,196.91,133.984,196.91z"/>
	<path d="M124.166,214.018h-19.635c-4.142,0-7.5,3.358-7.5,7.5c0,4.142,3.358,7.5,7.5,7.5h19.635c4.142,0,7.5-3.358,7.5-7.5
		C131.666,217.376,128.308,214.018,124.166,214.018z"/>
	
</g>
</svg>
